<svg xmlns="http://www.w3.org/2000/svg">
  <symbol id="github-icon" viewBox="0 0 19 19">
    <path fill="currentColor" fill-rule="evenodd" d="M9.356 1.85C5.05 1.85 1.57 5.356 1.57 9.694a7.84 7.84 0 0 0 5.324 7.44c.387.079.528-.168.528-.376 0-.182-.013-.805-.013-1.454-2.165.467-2.616-.935-2.616-.935-.349-.91-.864-1.143-.864-1.143-.71-.48.051-.48.051-.48.787.051 1.2.805 1.2.805.695 1.194 1.817.857 2.268.649.064-.507.27-.857.49-1.052-1.728-.182-3.545-.857-3.545-3.87 0-.857.31-1.558.8-2.104-.078-.195-.349-1 .077-2.078 0 0 .657-.208 2.14.805a7.5 7.5 0 0 1 1.946-.26c.657 0 1.328.092 1.946.26 1.483-1.013 2.14-.805 2.14-.805.426 1.078.155 1.883.078 2.078.502.546.799 1.247.799 2.104 0 3.013-1.818 3.675-3.558 3.87.284.247.528.714.528 1.454 0 1.052-.012 1.896-.012 2.156 0 .208.142.455.528.377a7.84 7.84 0 0 0 5.324-7.441c.013-4.338-3.48-7.844-7.773-7.844" clip-rule="evenodd"/>
  </symbol>
  <symbol id="x-icon" viewBox="0 0 19 19">
    <path fill="currentColor" fill-rule="evenodd" d="M1.893 1.98c.052.072 1.245 1.769 2.653 3.77l2.892 4.114c.183.261.333.48.333.486s-.068.089-.152.183l-.522.593-.765.867-3.597 4.087c-.375.426-.734.834-.798.905a1 1 0 0 0-.118.148c0 .01.236.017.664.017h.663l.729-.83c.4-.457.796-.906.879-.999a692 692 0 0 0 1.794-2.038c.034-.037.301-.34.594-.675l.551-.624.345-.392a7 7 0 0 1 .34-.374c.006 0 .93 1.306 2.052 2.903l2.084 2.965.045.063h2.275c1.87 0 2.273-.003 2.266-.021-.008-.02-1.098-1.572-3.894-5.547-2.013-2.862-2.28-3.246-2.273-3.266.008-.019.282-.332 2.085-2.38l2-2.274 1.567-1.782c.022-.028-.016-.03-.65-.03h-.674l-.3.342a871 871 0 0 1-1.782 2.025c-.067.075-.405.458-.75.852a100 100 0 0 1-.803.91c-.148.172-.299.344-.99 1.127-.304.343-.32.358-.345.327-.015-.019-.904-1.282-1.976-2.808L6.365 1.85H1.8zm1.782.91 8.078 11.294c.772 1.08 1.413 1.973 1.425 1.984.016.017.241.02 1.05.017l1.03-.004-2.694-3.766L7.796 5.75 5.722 2.852l-1.039-.004-1.039-.004z" clip-rule="evenodd"/>
  </symbol>
  <symbol id="clear-filter-icon" viewBox="0 0 24 24">
    <path d="M15 15L21 21M21 15L15 21M10 21V14.6627C10 14.4182 10 14.2959 9.97237 14.1808C9.94787 14.0787 9.90747 13.9812 9.85264 13.8917C9.7908 13.7908 9.70432 13.7043 9.53137 13.5314L3.46863 7.46863C3.29568 7.29568 3.2092 7.2092 3.14736 7.10828C3.09253 7.01881 3.05213 6.92127 3.02763 6.81923C3 6.70414 3 6.58185 3 6.33726V4.6C3 4.03995 3 3.75992 3.10899 3.54601C3.20487 3.35785 3.35785 3.20487 3.54601 3.10899C3.75992 3 4.03995 3 4.6 3H19.4C19.9601 3 20.2401 3 20.454 3.10899C20.6422 3.20487 20.7951 3.35785 20.891 3.54601C21 3.75992 21 4.03995 21 4.6V6.33726C21 6.58185 21 6.70414 20.9724 6.81923C20.9479 6.92127 20.9075 7.01881 20.8526 7.10828C20.7908 7.2092 20.7043 7.29568 20.5314 7.46863L17 11" stroke="currentColor" stroke-width="2" stroke-linecap="round" stroke-linejoin="round" fill="none"></path>
  </symbol>
  <symbol id="list-icon" viewBox="0 0 24 24">
    <path d="M10 6L21 6.00066M10 12L21 12.0007M10 18L21 18.0007M3 5L5 4V10M5 10H3M5 10H7M7 20H3L6.41274 17.0139C6.78593 16.6873 7 16.2156 7 15.7197C7 14.7699 6.23008 14 5.28033 14H5C4.06808 14 3.28503 14.6374 3.06301 15.5" stroke="currentColor" stroke-width="2" stroke-linecap="round" stroke-linejoin="round"></path>
  </symbol>
  <symbol id="search-icon" viewBox="0 0 24 24">
    <path d="M15.7955 15.8111L21 21M18 10.5C18 14.6421 14.6421 18 10.5 18C6.35786 18 3 14.6421 3 10.5C3 6.35786 6.35786 3 10.5 3C14.6421 3 18 6.35786 18 10.5Z" fill="none" stroke="currentColor" stroke-width="2" stroke-linecap="round" stroke-linejoin="round"></path>
  </symbol>
  <symbol id="copy-icon" viewBox="0 0 24 24">
      <path fill="currentColor" fill-rule="evenodd" d="M4 2a2 2 0 00-2 2v9a2 2 0 002 2h2v2a2 2 0 002 2h9a2 2 0 002-2V8a2 2 0 00-2-2h-2V4a2 2 0 00-2-2H4zm9 4V4H4v9h2V8a2 2 0 012-2h5zM8 8h9v9H8V8z"></path>
  </symbol>
  <symbol id="share-icon" viewBox="0 0 24 24">
    <path fill-rule="evenodd" clip-rule="evenodd" d="M13.803 5.33333C13.803 3.49238 15.3022 2 17.1515 2C19.0008 2 20.5 3.49238 20.5 5.33333C20.5 7.17428 19.0008 8.66667 17.1515 8.66667C16.2177 8.66667 15.3738 8.28596 14.7671 7.67347L10.1317 10.8295C10.1745 11.0425 10.197 11.2625 10.197 11.4872C10.197 11.9322 10.109 12.3576 9.94959 12.7464L15.0323 16.0858C15.6092 15.6161 16.3473 15.3333 17.1515 15.3333C19.0008 15.3333 20.5 16.8257 20.5 18.6667C20.5 20.5076 19.0008 22 17.1515 22C15.3022 22 13.803 20.5076 13.803 18.6667C13.803 18.1845 13.9062 17.7255 14.0917 17.3111L9.05007 13.9987C8.46196 14.5098 7.6916 14.8205 6.84848 14.8205C4.99917 14.8205 3.5 13.3281 3.5 11.4872C3.5 9.64623 4.99917 8.15385 6.84848 8.15385C7.9119 8.15385 8.85853 8.64725 9.47145 9.41518L13.9639 6.35642C13.8594 6.03359 13.803 5.6896 13.803 5.33333Z" fill="currentColor"></path>
  </symbol>
  <symbol id="edit-icon" viewBox="0 0 24 24" xmlns="http://www.w3.org/2000/svg">
    <path d="M20,16v4a2,2,0,0,1-2,2H4a2,2,0,0,1-2-2V6A2,2,0,0,1,4,4H8" fill="none" stroke="currentColor" stroke-linecap="round" stroke-linejoin="round" stroke-width="2"></path>
    <polygon fill="none" points="12.5 15.8 22 6.2 17.8 2 8.3 11.5 8 16 12.5 15.8" stroke="currentColor" stroke-linecap="round" stroke-linejoin="round" stroke-width="2"></polygon>
  </symbol>
  <symbol id="star-icon" viewBox="0 0 64 64" xmlns="http://www.w3.org/2000/svg">
    <path fill="currentColor" d="M49.302,63.999c-0.664,0-1.332-0.164-1.938-0.5l-15.365-8.498l-15.366,8.498 c-1.344,0.742-2.993,0.652-4.243-0.23c-1.25-0.883-1.891-2.403-1.645-3.915l2.981-18.261L1.138,28.185 c-1.047-1.074-1.406-2.641-0.93-4.063c0.477-1.422,1.707-2.457,3.188-2.684l17.237-2.633L28.376,2.31 c0.661-1.407,2.071-2.301,3.622-2.301s2.961,0.895,3.622,2.301l7.743,16.495l17.237,2.633c1.48,0.227,2.711,1.262,3.188,2.684 c0.477,1.423,0.117,2.989-0.93,4.063L50.271,41.093l2.98,18.261c0.246,1.512-0.395,3.032-1.645,3.915 C50.919,63.753,50.11,63.999,49.302,63.999z M31.998,46.43c0.668,0,1.332,0.168,1.938,0.5l10.092,5.579l-1.98-12.119 c-0.203-1.254,0.199-2.527,1.086-3.438l8.563-8.779l-11.654-1.781c-1.316-0.199-2.449-1.043-3.016-2.255l-5.028-10.712 L26.97,24.137c-0.566,1.212-1.699,2.056-3.016,2.255L12.3,28.173l8.563,8.779c0.887,0.91,1.289,2.184,1.086,3.438l-1.98,12.119 l10.092-5.579C30.666,46.598,31.33,46.43,31.998,46.43z"></path>
    <path fill="currentColor" d="M31.998,46.43c0.668,0,1.332,0.168,1.938,0.5l10.092,5.579l-1.98-12.119 c-0.203-1.254,0.199-2.527,1.086-3.438l8.563-8.779l-11.654-1.781c-1.316-0.199-2.449-1.043-3.016-2.255l-5.028-10.712 L26.97,24.137c-0.566,1.212-1.699,2.056-3.016,2.255L12.3,28.173l8.563,8.779c0.887,0.91,1.289,2.184,1.086,3.438l-1.98,12.119 l10.092-5.579C30.666,46.598,31.33,46.43,31.998,46.43z"></path>
  </symbol>
  <symbol id="star-empty-icon" viewBox="0 0 64 64" xmlns="http://www.w3.org/2000/svg">
    <path fill="currentColor" d="M49.302,63.999c-0.664,0-1.332-0.164-1.938-0.5l-15.365-8.498l-15.366,8.498 c-1.344,0.742-2.993,0.652-4.243-0.23c-1.25-0.883-1.891-2.403-1.645-3.915l2.981-18.261L1.138,28.185 c-1.047-1.074-1.406-2.641-0.93-4.063c0.477-1.422,1.707-2.457,3.188-2.684l17.237-2.633L28.376,2.31 c0.661-1.407,2.071-2.301,3.622-2.301s2.961,0.895,3.622,2.301l7.743,16.495l17.237,2.633c1.48,0.227,2.711,1.262,3.188,2.684 c0.477,1.423,0.117,2.989-0.93,4.063L50.271,41.093l2.98,18.261c0.246,1.512-0.395,3.032-1.645,3.915 C50.919,63.753,50.11,63.999,49.302,63.999z M31.998,46.43c0.668,0,1.332,0.168,1.938,0.5l10.092,5.579l-1.98-12.119 c-0.203-1.254,0.199-2.527,1.086-3.438l8.563-8.779l-11.654-1.781c-1.316-0.199-2.449-1.043-3.016-2.255l-5.028-10.712 L26.97,24.137c-0.566,1.212-1.699,2.056-3.016,2.255L12.3,28.173l8.563,8.779c0.887,0.91,1.289,2.184,1.086,3.438l-1.98,12.119 l10.092-5.579C30.666,46.598,31.33,46.43,31.998,46.43z"></path>
    <!-- <path fill="currentColor" d="M31.998,46.43c0.668,0,1.332,0.168,1.938,0.5l10.092,5.579l-1.98-12.119 c-0.203-1.254,0.199-2.527,1.086-3.438l8.563-8.779l-11.654-1.781c-1.316-0.199-2.449-1.043-3.016-2.255l-5.028-10.712 L26.97,24.137c-0.566,1.212-1.699,2.056-3.016,2.255L12.3,28.173l8.563,8.779c0.887,0.91,1.289,2.184,1.086,3.438l-1.98,12.119 l10.092-5.579C30.666,46.598,31.33,46.43,31.998,46.43z"></path> -->
  </symbol>
  <symbol id="warning-icon" viewBox="0 0 24 24" xmlns="http://www.w3.org/2000/svg">
    <path fill="currentColor" d="M12,2A10,10,0,1,0,22,12,10,10,0,0,0,12,2ZM11,7a1,1,0,0,1,2,0v6a1,1,0,0,1-2,0Zm1,12a1.5,1.5,0,1,1,1.5-1.5A1.5,1.5,0,0,1,12,19Z"></path>
  </symbol>
</svg>
